<svg width="26" height="19" viewBox="0 0 26 19" fill="none" xmlns="http://www.w3.org/2000/svg">
<path d="M1.18182 10.3636H21.965L18.0734 13.2075C17.6118 13.5448 17.6118 14.0916 18.0734 14.4289C18.3042 14.5975 18.6066 14.6818 18.9091 14.6818C19.2116 14.6818 19.514 14.5975 19.7447 14.4288L25.6538 10.1107C26.1153 9.77344 26.1153 9.22658 25.6538 8.88931L19.7447 4.57112C19.2833 4.2339 18.5349 4.2339 18.0734 4.57112C17.6118 4.90834 17.6118 5.4552 18.0734 5.79248L21.965 8.63637H1.18182C0.529139 8.63637 0 9.02305 0 9.50001C0 9.97697 0.529139 10.3636 1.18182 10.3636Z" fill="#F0EEEB"/>
</svg>
