<svg xmlns="http://www.w3.org/2000/svg" xmlns:xlink="http://www.w3.org/1999/xlink" width="236" height="85" viewBox="0 0 236 85"><defs><filter id="a" x="0" y="0" width="236" height="85" filterUnits="userSpaceOnUse"><feOffset dy="3" input="SourceAlpha"/><feGaussianBlur stdDeviation="3" result="b"/><feFlood flood-opacity="0.161"/><feComposite operator="in" in2="b"/><feComposite in="SourceGraphic"/></filter><filter id="c" x="23" y="19" width="136" height="48" filterUnits="userSpaceOnUse"><feOffset dy="3" input="SourceAlpha"/><feGaussianBlur stdDeviation="3" result="d"/><feFlood flood-opacity="0.161"/><feComposite operator="in" in2="d"/><feComposite in="SourceGraphic"/></filter><filter id="e" x="148.109" y="28.451" width="59.961" height="35.109" filterUnits="userSpaceOnUse"><feOffset dy="3" input="SourceAlpha"/><feGaussianBlur stdDeviation="3" result="f"/><feFlood flood-opacity="0.161"/><feComposite operator="in" in2="f"/><feComposite in="SourceGraphic"/></filter></defs><g transform="translate(-223 -663)"><g transform="translate(0 27)"><g transform="matrix(1, 0, 0, 1, 223, 636)" filter="url(#a)"><rect width="218" height="67" rx="17" transform="translate(9 6)" fill="#6c63ff"/></g><g transform="matrix(1, 0, 0, 1, 223, 636)" filter="url(#c)"><text transform="translate(91 49)" fill="#fff" font-size="22" font-family="SegoeUI-Bold, Segoe UI" font-weight="700"><tspan x="-58.873" y="0">Get Started</tspan></text></g></g><g transform="matrix(1, 0, 0, 1, 223, 663)" filter="url(#e)"><path d="M1.907,84.98H35.449l-6.281,4.695a1.189,1.189,0,0,0,0,2.016,2.387,2.387,0,0,0,2.7,0L41.4,84.563a1.189,1.189,0,0,0,0-2.016l-9.537-7.129a2.387,2.387,0,0,0-2.7,0,1.189,1.189,0,0,0,0,2.016l6.281,4.695H1.907C.854,82.129,0,82.767,0,83.555S.854,84.98,1.907,84.98Z" transform="translate(157.11 -40.55)" fill="#fff"/></g></g></svg>